HIERARCHY
ROOT hip
{
  OFFSET 0 0 0
  CHANNELS 6 Xposition Yposition Zposition Zrotation Yrotation Xrotation
  JOINT abdomen
  {
    OFFSET 0 20.6881 -0.73152
    CHANNELS 3 Zrotation Xrotation Yrotation
    JOINT chest
    {
      OFFSET 0 11.7043 -0.48768
      CHANNELS 3 Zrotation Xrotation Yrotation
      JOINT neck
      {
        OFFSET 0 22.1894 -2.19456
        CHANNELS 3 Zrotation Xrotation Yrotation
        JOINT head
        {
          OFFSET -0.24384 7.07133 1.2192
          CHANNELS 3 Zrotation Xrotation Yrotation
          JOINT leftEye
          {
            OFFSET 4.14528 8.04674 8.04672
            CHANNELS 3 Zrotation Xrotation Yrotation
            End Site
            {
              OFFSET 1 0 0
            }
          }
          JOINT rightEye
          {
            OFFSET -3.6576 8.04674 8.04672
            CHANNELS 3 Zrotation Xrotation Yrotation
            End Site
            {
              OFFSET 1 0 0
            }
          }
        }
      }
      JOINT rCollar
      {
        OFFSET -2.68224 19.2634 -4.8768
        CHANNELS 3 Zrotation Xrotation Yrotation
        JOINT rShldr
        {
          OFFSET -8.77824 -1.95073 1.46304
          CHANNELS 3 Zrotation Xrotation Yrotation
          JOINT rForeArm
          {
            OFFSET -28.1742 -1.7115 0.48768
            CHANNELS 3 Zrotation Xrotation Yrotation
            JOINT rHand
            {
              OFFSET -22.5879 0.773209 7.07136
              CHANNELS 3 Zrotation Xrotation Yrotation
              JOINT rThumb1
              {
                OFFSET -1.2192 -0.487915 3.41376
                CHANNELS 3 Zrotation Xrotation Yrotation
                JOINT rThumb2
                {
                  OFFSET -3.37035 -0.52449 3.41376
                  CHANNELS 3 Zrotation Xrotation Yrotation
                  End Site
                  {
                    OFFSET -1.78271 -1.18214 1.43049
                  }
                }
              }
              JOINT rIndex1
              {
                OFFSET -7.75947 0.938293 5.60832
                CHANNELS 3 Zrotation Xrotation Yrotation
                JOINT rIndex2
                {
                  OFFSET -2.54057 -0.884171 1.56538
                  CHANNELS 3 Zrotation Xrotation Yrotation
                  End Site
                  {
                    OFFSET -1.62519 -0.234802 1.16502
                  }
                }
              }
              JOINT rMid1
              {
                OFFSET -8.24714 1.18213 3.41376
                CHANNELS 3 Zrotation Xrotation Yrotation
                JOINT rMid2
                {
                  OFFSET -3.10165 -0.590103 1.0647
                  CHANNELS 3 Zrotation Xrotation Yrotation
                  End Site
                  {
                    OFFSET -2.48547 -0.328903 0.83742
                  }
                }
              }
              JOINT rRing1
              {
                OFFSET -8.82822 0.546677 1.51678
                CHANNELS 3 Zrotation Xrotation Yrotation
                JOINT rRing2
                {
                  OFFSET -2.60934 -0.819778 -0.0198488
                  CHANNELS 3 Zrotation Xrotation Yrotation
                  End Site
                  {
                    OFFSET -2.33842 -0.294052 0.168128
                  }
                }
              }
              JOINT rPinky1
              {
                OFFSET -8.27202 -0.0477905 -0.4584
                CHANNELS 3 Zrotation Xrotation Yrotation
                JOINT rPinky2
                {
                  OFFSET -1.82734 -0.647385 -0.700984
                  CHANNELS 3 Zrotation Xrotation Yrotation
                  End Site
                  {
                    OFFSET -1.69225 -0.51767 -0.607171
                  }
                }
              }
            }
          }
        }
      }
      JOINT lCollar
      {
        OFFSET 2.68224 19.2634 -4.8768
        CHANNELS 3 Zrotation Xrotation Yrotation
        JOINT lShldr
        {
          OFFSET 8.77824 -1.95073 1.46304
          CHANNELS 3 Zrotation Xrotation Yrotation
          JOINT lForeArm
          {
            OFFSET 28.1742 -1.7115 0.48768
            CHANNELS 3 Zrotation Xrotation Yrotation
            JOINT lHand
            {
              OFFSET 22.5879 0.773209 7.07136
              CHANNELS 3 Zrotation Xrotation Yrotation
              JOINT lThumb1
              {
                OFFSET 1.2192 -0.487915 3.41376
                CHANNELS 3 Zrotation Xrotation Yrotation
                JOINT lThumb2
                {
                  OFFSET 3.37035 -0.52449 3.41376
                  CHANNELS 3 Zrotation Xrotation Yrotation
                  End Site
                  {
                    OFFSET 1.78271 -1.18214 1.43049
                  }
                }
              }
              JOINT lIndex1
              {
                OFFSET 7.75947 0.938293 5.60832
                CHANNELS 3 Zrotation Xrotation Yrotation
                JOINT lIndex2
                {
                  OFFSET 2.54057 -0.884171 1.56538
                  CHANNELS 3 Zrotation Xrotation Yrotation
                  End Site
                  {
                    OFFSET 1.62519 -0.234802 1.16502
                  }
                }
              }
              JOINT lMid1
              {
                OFFSET 8.24714 1.18213 3.41376
                CHANNELS 3 Zrotation Xrotation Yrotation
                JOINT lMid2
                {
                  OFFSET 3.10165 -0.590103 1.0647
                  CHANNELS 3 Zrotation Xrotation Yrotation
                  End Site
                  {
                    OFFSET 2.48547 -0.328903 0.83742
                  }
                }
              }
              JOINT lRing1
              {
                OFFSET 8.82822 0.546677 1.51678
                CHANNELS 3 Zrotation Xrotation Yrotation
                JOINT lRing2
                {
                  OFFSET 2.60934 -0.819778 -0.0198488
                  CHANNELS 3 Zrotation Xrotation Yrotation
                  End Site
                  {
                    OFFSET 2.33842 -0.294052 0.168128
                  }
                }
              }
              JOINT lPinky1
              {
                OFFSET 8.27202 -0.0477905 -0.4584
                CHANNELS 3 Zrotation Xrotation Yrotation
                JOINT lPinky2
                {
                  OFFSET 1.82734 -0.647385 -0.700984
                  CHANNELS 3 Zrotation Xrotation Yrotation
                  End Site
                  {
                    OFFSET 1.69225 -0.51767 -0.607171
                  }
                }
              }
            }
          }
        }
      }
    }
  }
  JOINT rButtock
  {
    OFFSET -8.77824 4.35084 1.2192
    CHANNELS 3 Zrotation Xrotation Yrotation
    JOINT rThigh
    {
      OFFSET 0 -1.70687 -2.19456
      CHANNELS 3 Zrotation Xrotation Yrotation
      JOINT rShin
      {
        OFFSET 0 -36.8199 0.73152
        CHANNELS 3 Zrotation Xrotation Yrotation
        JOINT rFoot
        {
          OFFSET 0.73152 -45.1104 -5.12064
          CHANNELS 3 Zrotation Xrotation Yrotation
          End Site
          {
            OFFSET -1.1221 -3.69964 12.103
          }
        }
      }
    }
  }
  JOINT lButtock
  {
    OFFSET 8.77824 4.35084 1.2192
    CHANNELS 3 Zrotation Xrotation Yrotation
    JOINT lThigh
    {
      OFFSET 0 -1.70687 -2.19456
      CHANNELS 3 Zrotation Xrotation Yrotation
      JOINT lShin
      {
        OFFSET 0 -36.8199 0.73152
        CHANNELS 3 Zrotation Xrotation Yrotation
        JOINT lFoot
        {
          OFFSET -0.73152 -45.1104 -5.12064
          CHANNELS 3 Zrotation Xrotation Yrotation
          End Site
          {
            OFFSET 1.1221 -3.69964 12.103
          }
        }
      }
    }
  }
}
MOTION
Frames:	4
Frame Time:	0.00833333
-40.4704 81.8364 19.1594 -9.7275 44.1175 7.0028 -15.3147 3.48729 -24.8777 4.47009 0.0624738 -7.11789 -1.38011 9.73152 21.474 -20.4171 -13.3216 40.0018 -0.0 0.0 0.0 -0.0 0.0 0.0 1.22811e-14 -3.53508e-13 -8.88095e-13 36.1255 -26.3018 37.2261 -27.2356 -43.3503 90.1677 -0.315906 15.7996 2.27903 -1.10463e-09 2.45006e-09 2.25522e-09 -1.89368e-09 4.2424e-09 3.90113e-09 -1.10463e-09 2.45006e-09 2.2552e-09 7.73091 5.47488 0.417314 -1.10463e-09 2.45006e-09 2.25521e-09 2.90554 0.965183 0.102902 -1.10462e-09 2.45006e-09 2.25521e-09 10.2786 0.731801 0.0259123 -1.10463e-09 2.45006e-09 2.25522e-09 2.22167 -0.733487 -0.20892 1.22509e-14 -3.5349e-13 -8.8826e-13 -19.0266 -9.03265 -137.154 16.7958 -9.4478 -31.372 0.609372 21.5479 -3.18295 2.44943e-09 -1.59933e-10 -1.97787e-09 4.20062e-09 -2.47997e-10 -3.47092e-09 2.44942e-09 -1.59929e-10 -1.97787e-09 -7.73091 5.47488 -0.417314 2.44943e-09 -1.59926e-10 -1.97786e-09 -2.90554 0.965183 -0.102902 2.44942e-09 -1.59925e-10 -1.97787e-09 -10.2786 0.731801 -0.0259123 2.44943e-09 -1.59922e-10 -1.97788e-09 -2.22167 -0.733487 0.20892 -2.03217e-16 0.0 -3.88251e-19 14.615 -36.1177 24.6551 -0.199329 30.7936 0.618236 2.93254 -2.59295 19.9683 2.03217e-16 0.0 3.88251e-19 21.8342 -5.67975 11.2205 -0.0705693 24.5483 -0.899337 3.32035 -4.83409 25.1655
-40.4404 81.8489 19.0759 -9.6858 44.1455 7.1011 -15.1081 3.51108 -24.8654 4.46642 0.10109 -7.11681 -1.39634 9.57114 21.4543 -20.4765 -13.1062 40.0074 -0.0 0.0 0.0 -0.0 0.0 0.0 -4.21277e-14 -3.17795e-13 -1.21917e-12 35.9303 -26.2487 37.2064 -27.2558 -43.2894 90.0494 -0.29482 15.2767 2.19983 -8.159e-10 4.10084e-09 3.52122e-09 -1.38574e-09 7.10246e-09 6.08153e-09 -8.159e-10 4.10084e-09 3.52119e-09 7.73091 5.47488 0.417314 -8.159e-10 4.10084e-09 3.52121e-09 2.90554 0.965183 0.102902 -8.15894e-10 4.10084e-09 3.52122e-09 10.2786 0.731801 0.0259123 -8.15901e-10 4.10084e-09 3.52122e-09 2.22167 -0.733487 -0.20892 -4.21606e-14 -3.17781e-13 -1.21929e-12 -19.004 -9.11714 -137.035 16.7715 -9.42405 -31.3192 0.630533 21.9394 -3.24579 3.72009e-09 -9.06914e-10 -1.24511e-09 6.41298e-09 -1.53504e-09 -2.23191e-09 3.72008e-09 -9.0691e-10 -1.24511e-09 -7.73091 5.47488 -0.417314 3.7201e-09 -9.06906e-10 -1.24511e-09 -2.90554 0.965183 -0.102902 3.72009e-09 -9.06907e-10 -1.24511e-09 -10.2786 0.731801 -0.0259123 3.72009e-09 -9.06902e-10 -1.24512e-09 -2.22167 -0.733487 0.20892 -2.03217e-16 0.0 -3.88251e-19 14.5279 -36.2255 24.4837 -0.198972 30.7681 0.618365 2.93068 -2.5505 20.0579 2.03217e-16 0.0 3.88251e-19 21.7893 -5.66077 11.1242 -0.0718385 24.5216 -0.906496 3.62053 -5.56354 24.9337
-40.4019 81.865 18.9539 -9.5072 44.1839 7.2885 -14.9336 3.56055 -24.8398 4.46025 0.139432 -7.11241 -1.41834 9.44487 21.4448 -20.5119 -12.9638 40.0207 -0.0 0.0 0.0 -0.0 0.0 0.0 -9.92226e-14 -2.729e-13 -1.32152e-12 35.8062 -26.1882 37.227 -27.2802 -43.2163 89.9066 -0.275964 14.7883 2.12626 -4.98624e-10 4.59168e-09 3.71418e-09 -8.3651e-10 7.95286e-09 6.4096e-09 -4.98625e-10 4.59168e-09 3.71414e-09 7.73091 5.47488 0.417314 -4.98624e-10 4.59168e-09 3.71417e-09 2.90554 0.965183 0.102902 -4.98618e-10 4.59168e-09 3.71417e-09 10.2786 0.731801 0.0259123 -4.98624e-10 4.59168e-09 3.71417e-09 2.22167 -0.733487 -0.20892 -9.92704e-14 -2.72889e-13 -1.32162e-12 -18.9836 -9.18881 -136.943 16.7391 -9.39242 -31.2489 0.641612 22.1415 -3.27832 4.38825e-09 -1.36495e-09 -6.69993e-10 7.57924e-09 -2.32559e-09 -1.25187e-09 4.38824e-09 -1.36494e-09 -6.69997e-10 -7.73091 5.47488 -0.417314 4.38825e-09 -1.36494e-09 -6.69993e-10 -2.90554 0.965183 -0.102902 4.38825e-09 -1.36494e-09 -6.69993e-10 -10.2786 0.731801 -0.0259123 4.38825e-09 -1.36494e-09 -6.70006e-10 -2.22167 -0.733487 0.20892 -2.03217e-16 0.0 -3.88251e-19 14.4243 -36.32 24.3401 -0.198451 30.7246 0.617754 2.92374 -2.51152 20.112 2.03217e-16 0.0 3.88251e-19 21.7387 -5.69187 11.0934 -0.072554 24.5069 -0.91129 3.84138 -6.10559 24.7741
-40.3717 81.9092 18.8393 -9.3692 44.2459 7.4529 -14.8081 3.64769 -24.8051 4.45224 0.183258 -7.10644 -1.4749 9.35986 21.4609 -20.4944 -12.94 40.0688 -0.0 0.0 0.0 -0.0 0.0 0.0 -1.7076e-13 -2.04928e-13 -1.06349e-12 35.7792 -26.1126 37.319 -27.311 -43.1234 89.7251 -0.260901 14.3792 2.06493 -6.44388e-11 3.21376e-09 2.11183e-09 -9.88858e-11 5.5654e-09 3.63744e-09 -6.44391e-11 3.21376e-09 2.1118e-09 7.73091 5.47488 0.417314 -6.4439e-11 3.21376e-09 2.11182e-09 2.90554 0.965183 0.102902 -6.44328e-11 3.21376e-09 2.11182e-09 10.2786 0.731801 0.0259123 -6.44404e-11 3.21376e-09 2.11182e-09 2.22167 -0.733487 -0.20892 -1.70848e-13 -2.04922e-13 -1.06362e-12 -18.9671 -9.2627 -136.874 16.6952 -9.34964 -31.154 0.639916 22.1108 -3.27336 4.17314e-09 -1.41335e-09 -2.94605e-10 7.21222e-09 -2.41251e-09 -5.97108e-10 4.17313e-09 -1.41335e-09 -2.94605e-10 -7.73091 5.47488 -0.417314 4.17314e-09 -1.41335e-09 -2.94606e-10 -2.90554 0.965183 -0.102902 4.17314e-09 -1.41335e-09 -2.94605e-10 -10.2786 0.731801 -0.0259123 4.17314e-09 -1.41334e-09 -2.94616e-10 -2.22167 -0.733487 0.20892 -2.03217e-16 0.0 -3.88251e-19 14.3022 -36.395 24.242 -0.197895 30.6715 0.616386 2.91636 -2.489 20.1285 2.03217e-16 0.0 3.88251e-19 21.6671 -5.75997 11.1365 -0.0729037 24.493 -0.913627 3.99621 -6.47006 24.7143
